<svg width="32" height="30" viewBox="0 0 32 30" fill="none" xmlns="http://www.w3.org/2000/svg">
<path d="M27.4533 27.5C27.4533 22.6625 22.32 18.75 16 18.75C9.68 18.75 4.54666 22.6625 4.54666 27.5M16 15C17.7681 15 19.4638 14.3415 20.714 13.1694C21.9643 11.9973 22.6667 10.4076 22.6667 8.75C22.6667 7.0924 21.9643 5.50269 20.714 4.33058C19.4638 3.15848 17.7681 2.5 16 2.5C14.2319 2.5 12.5362 3.15848 11.2859 4.33058C10.0357 5.50269 9.33333 7.0924 9.33333 8.75C9.33333 10.4076 10.0357 11.9973 11.2859 13.1694C12.5362 14.3415 14.2319 15 16 15Z" stroke="#0B0C35" stroke-width="2" stroke-linecap="round" stroke-linejoin="round"/>
</svg>
